<svg xmlns="http://www.w3.org/2000/svg" version="1.1" xmlns:xlink="http://www.w3.org/1999/xlink" xmlns:svgjs="http://svgjs.dev/svgjs" width="1500" height="556" viewBox="0 0 1500 556"><g transform="matrix(1,0,0,1,-0.9090909090909918,-1.5210759960902465)"><svg viewBox="0 0 396 147" data-background-color="#000000" preserveAspectRatio="xMidYMid meet" height="556" width="1500" xmlns="http://www.w3.org/2000/svg" xmlns:xlink="http://www.w3.org/1999/xlink"><g id="tight-bounds" transform="matrix(1,0,0,1,0.2400000000000091,0.4021549845778196)"><svg viewBox="0 0 395.52 146.19569003084436" height="146.19569003084436" width="395.52"><g><svg viewBox="0 0 662.6816507138433 244.94640270249118" height="146.19569003084436" width="395.52"><g transform="matrix(1,0,0,1,267.1616507138433,74.3313090923049)"><svg viewBox="0 0 395.52 96.28378451788139" height="96.28378451788139" width="395.52"><g id="textblocktransform"><svg viewBox="0 0 395.52 96.28378451788139" height="96.28378451788139" width="395.52" id="textblock"><g><svg viewBox="0 0 395.52 96.28378451788139" height="96.28378451788139" width="395.52"><g transform="matrix(1,0,0,1,0,0)"><svg width="395.52" viewBox="3.98 -39.5 215.70000000000002 52.51" height="96.28378451788139" data-palette-color="#ffa001"><path d="M13.67-15.33L13.67 0 3.98 0 3.98-35.16 29.22-35.16 29.22-30.66 13.67-30.66 13.67-19.8 25.68-19.8 25.68-15.33 13.67-15.33ZM42.04-35.01L42.04-35.01Q42.04-34.08 41.68-33.25 41.33-32.42 40.72-31.81 40.11-31.2 39.28-30.85 38.45-30.49 37.52-30.49L37.52-30.49Q36.59-30.49 35.78-30.85 34.96-31.2 34.35-31.81 33.74-32.42 33.38-33.25 33.03-34.08 33.03-35.01L33.03-35.01Q33.03-35.94 33.38-36.76 33.74-37.57 34.35-38.18 34.96-38.79 35.78-39.15 36.59-39.5 37.52-39.5L37.52-39.5Q38.45-39.5 39.28-39.15 40.11-38.79 40.72-38.18 41.33-37.57 41.68-36.76 42.04-35.94 42.04-35.01ZM41.67-28.17L41.67 0 33.4 0 33.4-28.17 41.67-28.17ZM77.41-16.16L77.41-16.16Q77.41-13.31 76.72-10.21 76.02-7.1 74.78-4.13 73.53-1.15 71.8 1.48 70.06 4.1 67.99 6.01L67.99 6.01 64.89 4.32Q65.55 3.1 66.13 1.59 66.72 0.07 67.19-1.62 67.67-3.32 68.05-5.13 68.43-6.93 68.68-8.7 68.94-10.47 69.07-12.15 69.21-13.82 69.21-15.26L69.21-15.26Q69.21-16.21 69.14-17.3 69.06-18.38 68.83-19.47 68.6-20.56 68.21-21.56 67.82-22.56 67.17-23.32 66.52-24.07 65.61-24.54 64.69-25 63.45-25L63.45-25Q62.23-25 61.27-24.45 60.32-23.9 59.59-23.01 58.86-22.12 58.33-20.97 57.81-19.82 57.48-18.62 57.15-17.41 57-16.24 56.86-15.06 56.86-14.14L56.86-14.14 56.86 0 48.58 0 48.58-28.2 51.75-28.2 55.54-21.63Q56.22-23.27 57.25-24.61 58.27-25.95 59.57-26.9 60.86-27.86 62.43-28.37 64.01-28.88 65.84-28.88L65.84-28.88Q68.77-28.88 70.94-27.93 73.12-26.98 74.56-25.28 76-23.58 76.7-21.25 77.41-18.92 77.41-16.16ZM86.59-35.16L93.69-35.16Q93.03-33.18 92.55-31.07 92.06-28.96 91.74-26.84 91.42-24.73 91.26-22.68 91.11-20.63 91.11-18.8L91.11-18.8Q91.11-17.46 91.12-15.78 91.13-14.11 91.31-12.38 91.5-10.64 91.91-9 92.33-7.35 93.14-6.05 93.96-4.76 95.24-3.98 96.53-3.2 98.43-3.2L98.43-3.2Q100.11-3.2 101.32-3.77 102.53-4.35 103.37-5.32 104.22-6.3 104.72-7.57 105.22-8.84 105.5-10.23 105.78-11.62 105.86-13.05 105.95-14.48 105.95-15.77L105.95-15.77 105.95-35.16 115.64-35.16 115.64-17.29Q115.64-13.45 114.42-10.16 113.2-6.86 110.98-4.43 108.76-2 105.61-0.62 102.46 0.76 98.63 0.76L98.63 0.76Q95.99 0.76 93.72 0.01 91.45-0.73 89.56-2.04 87.66-3.34 86.19-5.14 84.71-6.93 83.72-9.06 82.73-11.18 82.22-13.54 81.71-15.89 81.76-18.31L81.76-18.31 81.76-18.8Q81.78-20.75 82.15-22.84 82.51-24.93 83.13-27.03 83.76-29.13 84.64-31.19 85.51-33.25 86.59-35.16L86.59-35.16ZM150.8-16.16L150.8-16.16Q150.8-13.31 150.1-10.21 149.4-7.1 148.16-4.13 146.91-1.15 145.18 1.48 143.45 4.1 141.37 6.01L141.37 6.01 138.27 4.32Q138.93 3.1 139.52 1.59 140.1 0.07 140.58-1.62 141.05-3.32 141.43-5.13 141.81-6.93 142.07-8.7 142.32-10.47 142.46-12.15 142.59-13.82 142.59-15.26L142.59-15.26Q142.59-16.21 142.52-17.3 142.45-18.38 142.21-19.47 141.98-20.56 141.59-21.56 141.2-22.56 140.55-23.32 139.91-24.07 138.99-24.54 138.08-25 136.83-25L136.83-25Q135.61-25 134.66-24.45 133.71-23.9 132.97-23.01 132.24-22.12 131.72-20.97 131.19-19.82 130.86-18.62 130.53-17.41 130.39-16.24 130.24-15.06 130.24-14.14L130.24-14.14 130.24 0 121.96 0 121.96-28.2 125.14-28.2 128.92-21.63Q129.6-23.27 130.63-24.61 131.66-25.95 132.95-26.9 134.24-27.86 135.82-28.37 137.39-28.88 139.22-28.88L139.22-28.88Q142.15-28.88 144.33-27.93 146.5-26.98 147.94-25.28 149.38-23.58 150.09-21.25 150.8-18.92 150.8-16.16ZM164.9-35.01L164.9-35.01Q164.9-34.08 164.55-33.25 164.2-32.42 163.59-31.81 162.98-31.2 162.15-30.85 161.32-30.49 160.39-30.49L160.39-30.49Q159.46-30.49 158.64-30.85 157.82-31.2 157.21-31.81 156.6-32.42 156.25-33.25 155.9-34.08 155.9-35.01L155.9-35.01Q155.9-35.94 156.25-36.76 156.6-37.57 157.21-38.18 157.82-38.79 158.64-39.15 159.46-39.5 160.39-39.5L160.39-39.5Q161.32-39.5 162.15-39.15 162.98-38.79 163.59-38.18 164.2-37.57 164.55-36.76 164.9-35.94 164.9-35.01ZM164.54-28.17L164.54 0 156.26 0 156.26-28.17 164.54-28.17ZM182.07-24.93L182.07 0 173.79 0 173.79-24.93 168.66-24.93 168.66-28.2 173.79-28.2 173.79-38.57 182.07-38.57 182.07-28.2 190.61-28.2 190.61-24.93 182.07-24.93ZM213.97-28.2L219.68-28.2 209.43-3.39Q207.67 0.85 205.51 5.02 203.35 9.18 200.84 13.01L200.84 13.01 197.61 11.06Q198.22 9.96 199.05 8.52 199.88 7.08 200.69 5.54 201.5 4 202.18 2.5 202.86 1 203.23-0.24L203.23-0.24 190.9-28.2 199.15-28.2 207.53-9.13 213.97-28.2Z" opacity="1" transform="matrix(1,0,0,1,0,0)" fill="#ffa001" class="wordmark-text-0" data-fill-palette-color="primary" id="text-0"></path></svg></g></svg></g></svg></g></svg></g><g><svg viewBox="0 0 244.43135999999996 244.94640270249118" height="244.94640270249118" width="244.43135999999996"><g><svg xmlns="http://www.w3.org/2000/svg" xmlns:xlink="http://www.w3.org/1999/xlink" version="1.1" x="0" y="0" viewBox="0.5 0.5 46.90117427016681 47" enable-background="new 0 0 48 48" xml:space="preserve" height="244.94640270249118" width="244.43135999999996" class="icon-icon-0" data-fill-palette-color="accent" id="icon-0"><g fill="#8bd8bc" data-fill-palette-color="accent"><path fill="#8bd8bc" d="M14.5 47.5C6.8 47.5 0.5 41.2 0.5 33.5S6.8 19.5 14.5 19.5 28.5 25.8 28.5 33.5 22.2 47.5 14.5 47.5M14.5 21.5C7.9 21.5 2.5 26.9 2.5 33.5S7.9 45.5 14.5 45.5 26.5 40.1 26.5 33.5 21.1 21.5 14.5 21.5" data-fill-palette-color="accent"></path><path fill="#8bd8bc" d="M14.1 41.6V40C13.3 39.9 12.6 39.7 12.1 39.5S11.2 38.8 10.8 38.2 10.2 36.9 10.2 36.1L11.8 35.8C11.9 36.7 12.1 37.3 12.5 37.7 13 38.3 13.5 38.6 14.1 38.7V33.6C13.4 33.5 12.8 33.2 12.1 32.8 11.6 32.5 11.2 32.1 10.9 31.6S10.5 30.5 10.5 29.9C10.5 28.8 10.9 27.8 11.7 27.1 12.2 26.6 13 26.3 14.1 26.2V25.4H15V26.2C15.9 26.3 16.7 26.6 17.2 27 17.9 27.6 18.3 28.4 18.5 29.4L16.8 29.6C16.7 29 16.5 28.5 16.2 28.2S15.5 27.6 15 27.5V32.1C15.8 32.3 16.3 32.5 16.6 32.6 17.1 32.8 17.5 33.1 17.8 33.4S18.4 34.1 18.5 34.5C18.7 34.9 18.8 35.4 18.8 35.9 18.8 37 18.4 37.9 17.7 38.7 17 39.4 16.1 39.8 15 39.9V41.5H14.1zM14.1 27.5C13.5 27.6 13 27.8 12.6 28.2S12.1 29.1 12.1 29.6 12.3 30.6 12.6 31 13.4 31.7 14.2 31.9V27.5zM15 38.6C15.6 38.5 16.1 38.3 16.5 37.8S17.1 36.8 17.1 36.1C17.1 35.5 17 35 16.7 34.7 16.4 34.3 15.8 34 15 33.8z" data-fill-palette-color="accent"></path><path fill="#8bd8bc" d="M33.5 41.5C30.8 41.5 28.2 40.7 26 39.3L25.3 38.8 25.6 38C26.2 36.5 26.5 35 26.5 33.4 26.5 29.3 24.4 25.5 20.9 23.3L20.2 22.8 20.5 22C22.7 16.7 27.8 13.3 33.4 13.3 41.1 13.3 47.4 19.6 47.4 27.3 47.5 35.2 41.2 41.5 33.5 41.5M27.7 38C29.5 39 31.4 39.5 33.5 39.5 40.1 39.5 45.5 34.1 45.5 27.5S40.1 15.5 33.5 15.5C28.9 15.5 24.8 18.1 22.7 22.2 26.3 24.8 28.5 29 28.5 33.5 28.5 35 28.2 36.6 27.7 38" data-fill-palette-color="accent"></path><path fill="#8bd8bc" d="M33.1 35.6V34C32.3 33.9 31.6 33.7 31.1 33.5S30.2 32.8 29.8 32.2 29.2 30.9 29.2 30.1L30.8 29.8C30.9 30.7 31.1 31.3 31.5 31.7 32 32.3 32.5 32.6 33.1 32.7V27.6C32.4 27.5 31.8 27.2 31.1 26.8 30.6 26.5 30.2 26.1 29.9 25.6S29.5 24.5 29.5 23.9C29.5 22.8 29.9 21.8 30.7 21.1 31.2 20.6 32 20.3 33.1 20.2V19.4H34V20.2C34.9 20.3 35.7 20.6 36.2 21 36.9 21.6 37.3 22.4 37.5 23.4L35.8 23.6C35.7 23 35.5 22.5 35.2 22.2S34.5 21.6 34 21.5V26.1C34.8 26.3 35.3 26.5 35.6 26.6 36.1 26.8 36.5 27.1 36.8 27.4S37.4 28.1 37.5 28.5C37.7 28.9 37.8 29.4 37.8 29.9 37.8 31 37.4 31.9 36.7 32.7 36 33.4 35.1 33.8 34 33.9V35.5H33.1zM33.1 21.5C32.5 21.6 32 21.8 31.6 22.2S31.1 23.1 31.1 23.6 31.3 24.6 31.6 25 32.4 25.7 33.2 25.9V21.5zM34 32.6C34.6 32.5 35.1 32.3 35.5 31.8S36.1 30.8 36.1 30.1C36.1 29.5 36 29 35.7 28.7 35.4 28.3 34.8 28 34 27.8z" data-fill-palette-color="accent"></path><path fill="#8bd8bc" d="M11.2 22H11C5.2 21.9 0.5 17 0.5 11.2 0.5 5.3 5.3 0.5 11.2 0.5S22 5.3 22 11.2C22 15.9 19 20 14.6 21.4H14.3C13.3 21.4 12.3 21.6 11.3 21.8zM11.2 2.5C6.4 2.5 2.5 6.4 2.5 11.2 2.5 15.9 6.3 19.8 10.9 19.9 11.9 19.6 13 19.5 14.1 19.4 17.6 18.2 20 14.9 20 11.1 20 6.4 16.1 2.5 11.2 2.5" data-fill-palette-color="accent"></path><path fill="#8bd8bc" d="M10.9 17.3V16.1C10.3 16 9.8 15.9 9.4 15.7S8.7 15.2 8.4 14.8 8 13.8 7.9 13.2L9.1 13C9.2 13.6 9.4 14.1 9.6 14.4 9.9 14.8 10.3 15.1 10.8 15.1V11.3C10.3 11.2 9.8 11 9.3 10.7 9 10.5 8.7 10.2 8.5 9.8S8.2 9 8.2 8.5C8.2 7.6 8.5 7 9.1 6.4 9.5 6 10.1 5.8 10.9 5.7V5.2H11.6V5.8C12.3 5.9 12.9 6.1 13.3 6.4 13.8 6.8 14.1 7.4 14.2 8.2L13 8.4C12.9 7.9 12.8 7.6 12.6 7.3 12.3 7 12 6.9 11.6 6.8V10.3C12.2 10.5 12.6 10.6 12.8 10.7 13.2 10.9 13.5 11.1 13.7 11.3S14.1 11.8 14.2 12.1 14.4 12.8 14.4 13.2C14.4 14 14.1 14.7 13.6 15.3S12.4 16.2 11.5 16.2V17.4H10.9zM10.9 6.8C10.5 6.8 10.1 7 9.8 7.3S9.4 8 9.4 8.4 9.5 9.2 9.7 9.4C9.9 9.7 10.3 9.9 10.9 10.1zM11.6 15.1C12.1 15 12.5 14.8 12.8 14.5S13.3 13.7 13.3 13.2C13.3 12.8 13.2 12.4 13 12.1S12.4 11.6 11.7 11.4V15.1z" data-fill-palette-color="accent"></path></g></svg></g></svg></g></svg></g><defs></defs></svg><rect width="395.52" height="146.19569003084436" fill="none" stroke="none" visibility="hidden"></rect></g></svg></g></svg>